<svg width="1024" height="1024" viewBox="0 0 1024 1024" fill="none" xmlns="http://www.w3.org/2000/svg">
  <path d="M512 132L768 226V431C768 590 668 733 512 820C356 733 256 590 256 431V226L512 132Z" fill="#D97757"/>
  <path d="M512 232L673 291V430C673 535 612 631 512 696C412 631 351 535 351 430V291L512 232Z" fill="white"/>
  <path d="M512 295L616 333V426C616 494 579 558 512 607C445 558 408 494 408 426V333L512 295Z" fill="#D97757"/>
  <path d="M373 696H651C676 696 696 716 696 741V752H328V741C328 716 348 696 373 696Z" fill="#D97757"/>
  <path d="M392 744H632L666 798H358L392 744Z" fill="#D97757"/>
</svg>
